<svg xmlns="http://www.w3.org/2000/svg" viewBox="0 0 400 240" role="img" aria-label="Illustration: zwei Personen mit Lohnzettel und Münzen für Personalverrechnung">
  <rect width="400" height="240" fill="#0e2436"/>
  <g>
    <circle cx="108" cy="108" r="26" fill="#2e7dae"/>
    <path d="M60 196c0-30 21-48 48-48s48 18 48 48" fill="#2e7dae"/>
  </g>
  <g>
    <circle cx="168" cy="92" r="22" fill="#4a9fd9"/>
    <path d="M126 190c0-27 19-44 42-44s42 17 42 44" fill="#4a9fd9"/>
  </g>
  <rect x="228" y="54" width="112" height="142" rx="10" fill="#163a54" stroke="#4a9fd9" stroke-width="1.5"/>
  <line x1="246" y1="82" x2="322" y2="82" stroke="#4a9fd9" stroke-width="3" stroke-linecap="round" opacity="0.8"/>
  <line x1="246" y1="100" x2="300" y2="100" stroke="#4a9fd9" stroke-width="3" stroke-linecap="round" opacity="0.6"/>
  <line x1="246" y1="118" x2="310" y2="118" stroke="#4a9fd9" stroke-width="3" stroke-linecap="round" opacity="0.6"/>
  <rect x="246" y="140" width="76" height="26" rx="4" fill="#0e2436"/>
  <text x="284" y="158" text-anchor="middle" font-family="IBM Plex Mono, monospace" font-size="14" fill="#4a9fd9" font-weight="600">€</text>
  <g>
    <circle cx="252" cy="206" r="16" fill="#4a9fd9"/>
    <circle cx="276" cy="212" r="16" fill="#2e7dae"/>
  </g>
</svg>
